<?xml version="1.0" standalone="no"?><!DOCTYPE svg PUBLIC "-//W3C//DTD SVG 1.1//EN" "http://www.w3.org/Graphics/SVG/1.1/DTD/svg11.dtd"><svg t="1622371976954" class="icon" viewBox="0 0 1024 1024" version="1.1" xmlns="http://www.w3.org/2000/svg" p-id="1261" xmlns:xlink="http://www.w3.org/1999/xlink" width="200" height="200"><defs><style type="text/css"></style></defs><path d="M928 595.2H96c-12.8 0-25.6-9.6-25.6-25.6s9.6-25.6 25.6-25.6h832c12.8 0 25.6 9.6 25.6 25.6s-12.8 25.6-25.6 25.6z" fill="#FF9F43" p-id="1262"></path><path d="M720 953.6h-416c-12.8 0-25.6-9.6-25.6-25.6s9.6-25.6 25.6-25.6h416c12.8 0 25.6 9.6 25.6 25.6s-12.8 25.6-25.6 25.6zM928 713.6H96c-12.8 0-25.6-9.6-25.6-25.6V96c0-12.8 9.6-25.6 25.6-25.6h832c12.8 0 25.6 9.6 25.6 25.6v595.2c0 12.8-12.8 22.4-25.6 22.4zM121.6 665.6h784v-544H121.6v544z" fill="#5F27CD" p-id="1263"></path><path d="M630.4 953.6h-236.8c-6.4 0-12.8-3.2-19.2-9.6-3.2-6.4-6.4-12.8-6.4-19.2l28.8-236.8c0-12.8 12.8-22.4 22.4-22.4h179.2c12.8 0 22.4 9.6 22.4 22.4l28.8 236.8c0 6.4 0 12.8-6.4 19.2 0 6.4-6.4 9.6-12.8 9.6z m-211.2-48h182.4l-22.4-188.8h-137.6l-22.4 188.8z" fill="#5F27CD" p-id="1264"></path></svg>